<svg width="78" height="80" viewBox="0 0 78 81" fill="none" xmlns="http://www.w3.org/2000/svg">
<path d="M31.4423 60.7699L59.1124 44.9774L46.5418 37.7397L18.8903 53.6619L31.4423 60.7699ZM60.3848 28.4679L47.801 21.2303V35.56L60.3874 42.8003L60.3848 28.4679ZM61.6413 11.8129L49.0602 19.0505L61.6413 26.2881L74.2198 19.0479L61.6413 11.8129ZM22.8926 48.4507L30.1937 44.2472V12.678L17.6073 19.9209V51.4901L22.8926 48.4507ZM16.3481 3.26325L3.76694 10.5035L16.3481 17.7438L28.9213 10.5035L16.3481 3.26325ZM2.50512 12.6806V61.4921L30.1858 77.4222V62.9497L15.7106 54.7598C15.663 54.7254 15.6259 54.6883 15.5757 54.6566C15.5386 54.6222 15.4963 54.5957 15.4593 54.5666L15.4566 54.5587C15.4169 54.519 15.3826 54.4767 15.3535 54.4291L15.3508 54.4264C15.3138 54.3921 15.2847 54.3524 15.2582 54.3074L15.2556 54.3048H15.2476C15.2265 54.2651 15.2053 54.2122 15.1842 54.1593L15.1815 54.1487C15.163 54.109 15.1418 54.064 15.1233 54.0138L15.1207 54.0058C15.1101 53.9529 15.0995 53.8868 15.0942 53.8207V53.8154C15.0863 53.7757 15.0783 53.7281 15.0731 53.6805V53.6778V19.9261L7.7799 15.7201L2.50512 12.6806ZM60.3874 61.4895V47.1465L32.7068 62.9497V77.4196L60.3874 61.4895ZM75.4764 35.56V21.2303L62.8952 28.4705V42.8003L75.4764 35.56ZM77.9524 18.7225C77.9815 18.823 78 18.9368 78 19.0558V36.2848C78 36.7504 77.7487 37.1551 77.3731 37.372L77.3678 37.3747L62.9031 45.7048V62.2143C62.9031 62.6772 62.6518 63.0819 62.2788 63.3015L62.2736 63.3041L32.0745 80.6839C32.0111 80.7183 31.937 80.7501 31.8603 80.7712L31.8523 80.7739L31.773 80.8083C31.6777 80.8373 31.5666 80.8532 31.4529 80.8532C31.3391 80.8532 31.228 80.8373 31.1222 80.8056L31.1302 80.8083C31.0905 80.7977 31.0587 80.7844 31.027 80.7659L31.0296 80.7686C30.9476 80.7395 30.8789 80.713 30.8127 80.6813L30.8233 80.6866L0.632232 63.3068C0.251306 63.0846 0 62.6799 0 62.2169V10.5061C0 10.3898 0.0185174 10.276 0.0502613 10.1702L0.0476158 10.1781C0.0581971 10.1384 0.0820051 10.112 0.0952317 10.0723C0.11904 9.9956 0.145493 9.93211 0.174591 9.87127L0.171946 9.87921C0.193109 9.83688 0.219562 9.79985 0.24866 9.7681L0.359764 9.61732L0.484094 9.52738C0.53171 9.4877 0.574035 9.44802 0.621651 9.41363H0.624296L15.7238 0.723744C15.9037 0.617931 16.1206 0.554443 16.3507 0.554443C16.5809 0.554443 16.7978 0.617931 16.983 0.726389L16.9777 0.723744L32.0825 9.41363C32.1327 9.44802 32.1751 9.48505 32.2174 9.52473L32.3444 9.61468C32.3867 9.66229 32.4105 9.7152 32.4555 9.76546C32.4872 9.7972 32.5137 9.83424 32.5375 9.87392L32.5401 9.87656C32.5666 9.92947 32.593 9.99296 32.6168 10.0591L32.6195 10.0697L32.6618 10.1755C32.6909 10.2681 32.7094 10.3765 32.7094 10.4876C32.7094 10.4929 32.7094 10.4982 32.7094 10.5035V42.7976L45.2906 35.5574V19.0479C45.2906 19.0453 45.2906 19.0426 45.2906 19.0426C45.2906 18.9289 45.3065 18.8178 45.3356 18.7119L45.3329 18.7199C45.3435 18.6855 45.3673 18.6537 45.3752 18.6141C45.4017 18.5347 45.4281 18.4712 45.4599 18.4077L45.4546 18.4183C45.4784 18.3786 45.5154 18.3522 45.5392 18.3072C45.5789 18.2569 45.6107 18.2067 45.6503 18.1644C45.6874 18.13 45.7271 18.0982 45.7694 18.0718L45.772 18.0691C45.8196 18.0347 45.8593 17.9924 45.9096 17.9633H45.9122L61.0117 9.27078C61.1916 9.16497 61.4085 9.10148 61.6387 9.10148C61.8688 9.10148 62.0857 9.16497 62.2709 9.27343L62.2656 9.27078L77.3651 17.9633C77.418 17.9977 77.4551 18.0347 77.5053 18.0665C77.545 18.1009 77.59 18.1273 77.627 18.1591C77.6693 18.2067 77.7011 18.2596 77.7408 18.3072C77.7699 18.3389 77.7963 18.376 77.8201 18.413L77.8228 18.4157C77.8545 18.4739 77.881 18.54 77.9021 18.6088L77.9048 18.6167C77.9259 18.6485 77.9418 18.6828 77.955 18.7199L77.9524 18.7225Z" fill="white"/>
</svg>
