<svg width="81" height="80" viewBox="0 0 81 80" fill="none" xmlns="http://www.w3.org/2000/svg">
<path d="M41.0815 57.0463C41.0815 57.0463 41.0622 56.9694 41.043 56.8154C41.0815 56.9694 41.0815 57.0463 41.0815 57.0463Z" fill="white"/>
<path d="M46.6005 10.5569C46.6005 10.5569 45.8806 7.92155 46.8405 5.76533C47.8003 3.60911 47.8003 2.17162 45.8806 0.0153984C49.72 -0.224182 51.1598 2.4112 51.1598 2.4112L51.2078 2.71595C51.4343 4.1841 50.6741 5.57942 49.3918 6.33457C48.2207 7.02265 46.9614 8.27997 46.6005 10.5569Z" fill="white"/>
<path d="M73.9658 63.4854C74.0042 63.0829 74.6185 57.6588 73.2363 55.1288C70.3567 63.2554 67.4772 70.692 59.0881 75.9628C60.2783 73.567 62.198 69.7337 64.1177 63.9837C58.3586 71.6503 46.8403 79.3169 38.2017 79.7961C44.0376 76.5761 47.3203 72.4361 48.76 69.7337C48.76 69.7337 45.4006 70.692 41.3116 71.1712C46.8403 67.817 50.6798 61.8371 48.76 52.4839C44.9206 64.4629 39.6414 68.2962 32.6729 69.0053C25.7236 69.7337 19.4845 66.1304 19.4845 66.1304L21.8842 65.9004C21.8842 65.9004 15.6451 61.1088 17.8144 54.8797C17.9104 54.573 18.0256 54.2855 18.1599 54.0172C19.7341 50.5289 25.0901 52.2922 24.5334 56.068V56.0872C24.5334 56.0872 26.2035 60.6296 30.7532 59.4221C32.2122 57.0455 33.172 54.6305 33.172 54.6305L33.8823 57.7547C33.8823 57.7547 37.2418 56.3172 37.2418 53.6722C40.1214 54.7647 40.8509 56.1255 41.0236 56.7197C40.5245 54.0364 36.186 35.5791 13.2071 35.8474L9.19491 39.5657C8.92615 39.8149 8.50381 39.604 8.54221 39.259L8.84936 36.1924L9.11812 35.9241C9.04133 35.9432 8.94534 35.9241 8.86856 35.9241L8.84936 36.1924L7.2752 37.6491C7.00644 37.8982 6.58411 37.6874 6.6225 37.3424L6.81447 35.3874C3.47418 33.9691 3.16703 30.2125 3.16703 30.2125C3.16703 30.2125 -0.998732 29.0433 0.767397 23.7342C1.72725 20.8592 4.0309 20.5717 5.00995 20.8017C6.25776 21.0892 7.54396 21.1084 8.73418 20.6292C10.4619 19.9393 12.6696 18.6168 14.2053 16.0676C17.0849 11.276 21.4042 9.35938 30.7532 9.35938C43.1353 9.35938 48.1265 13.1543 48.7025 13.6143C48.3569 13.2118 46.2644 10.4327 50.6798 6.25442C55.0375 2.11446 54.2504 1.13697 54.0776 0.983643C54.7303 1.17531 63.1962 4.05027 64.1177 15.1093C65.0775 26.6092 51.6396 29.005 51.6396 29.005C51.6396 29.005 68.917 32.3591 69.1473 16.0676C72.526 17.9843 79.4753 25.1717 80.4352 40.754C81.3758 55.8572 74.3689 63.0829 73.9658 63.4854Z" fill="white"/>
<path d="M9.11827 35.9241L8.84985 36.1925L8.86903 35.9241C8.94572 35.9241 9.04158 35.9432 9.11827 35.9241Z" fill="white"/>
<path d="M9.11827 35.9241L8.84985 36.1925L8.86903 35.9241C8.94572 35.9241 9.04158 35.9432 9.11827 35.9241Z" fill="white"/>
</svg>
