<svg width="80" height="80" viewBox="0 0 80 81" fill="none" xmlns="http://www.w3.org/2000/svg">
<path d="M40 0.703857C17.944 0.703857 0 18.6479 0 40.7039C0 62.7599 17.944 80.7039 40 80.7039C62.056 80.7039 80 62.7599 80 40.7039C80 18.6479 62.056 0.703857 40 0.703857ZM40 6.70386C58.748 6.70386 74 21.9559 74 40.7039C74 52.4079 68.0553 62.744 59.0273 68.864L31.4844 28.0242C30.7504 26.9302 29.3751 26.4528 28.1211 26.8328C26.8611 27.2208 26 28.3859 26 29.7039V55.7039C26 57.3599 27.344 58.7039 29 58.7039C30.656 58.7039 32 57.3599 32 55.7039V39.5164L53.7539 71.7703C49.5419 73.6403 44.896 74.7039 40 74.7039C21.252 74.7039 6 59.4519 6 40.7039C6 21.9559 21.252 6.70386 40 6.70386ZM51 22.7039C49.344 22.7039 48 24.0479 48 25.7039V42.6765L54 51.282V25.7039C54 24.0479 52.656 22.7039 51 22.7039Z" fill="white"/>
</svg>
