<svg width="72" height="80" viewBox="0 0 72 80" fill="none" xmlns="http://www.w3.org/2000/svg">
<path d="M71.262 23.0495V56.7969C71.262 58.987 70.0818 61.0262 68.1852 62.1285L38.8986 79.0116C37.9618 79.554 36.8994 79.8328 35.8144 79.8328C34.7449 79.8328 33.6796 79.554 32.7428 79.0116L22.9641 73.2353C21.5055 72.4222 22.2173 72.133 22.6995 71.9661C24.6474 71.2912 25.0413 71.1357 27.1208 69.9575C27.3377 69.8336 27.6238 69.882 27.8476 70.011L35.3599 74.4644C35.6322 74.6176 36.0168 74.6176 36.2672 74.4644L65.5562 57.5861C65.8289 57.4306 66.0038 57.1203 66.0038 56.7971V23.0495C66.0038 22.7189 65.8289 22.4101 65.5493 22.2432L36.2724 5.37988C36.0024 5.22216 35.642 5.22216 35.3702 5.37988L6.09985 22.2479C5.81551 22.4103 5.63611 22.7287 5.63611 23.0495V56.7969C5.63611 57.12 5.81535 57.4229 6.09813 57.5761L14.1216 62.2068C18.4742 64.3778 21.1403 61.8187 21.1403 59.2467V25.929C21.1403 25.4579 21.5192 25.0864 21.991 25.0864H25.7051C26.1695 25.0864 26.5543 25.4577 26.5543 25.929V59.2468C26.5543 65.0474 23.3892 68.3748 17.8813 68.3748C16.1896 68.3748 14.8553 68.3748 11.1342 66.5457L3.45504 62.1285C1.55737 61.0362 0.383545 58.9871 0.383545 56.7969V23.0495C0.383545 20.8565 1.55737 18.8098 3.45504 17.719L32.7429 0.821669C34.5963 -0.224736 37.061 -0.224736 38.8986 0.821669L68.1852 17.719C70.0818 18.8143 71.262 20.8565 71.262 23.0495ZM46.0159 53.5777C37.276 53.5777 35.353 51.384 34.7088 47.0448C34.6342 46.5816 34.2367 46.2367 33.7605 46.2367H29.4897C28.9607 46.2367 28.5362 46.6587 28.5362 47.1898C28.5362 52.7428 31.5633 59.3655 46.0159 59.3655C56.4804 59.3655 62.4806 55.2525 62.4806 48.0687C62.4806 40.9444 57.6591 39.0491 47.5112 37.7077C37.2543 36.3526 36.212 35.6547 36.212 33.256C36.212 31.2789 37.0946 28.6367 44.6917 28.6367C51.4756 28.6367 53.9767 30.0966 55.005 34.6606C55.0956 35.0908 55.4872 35.4047 55.9314 35.4047H60.2184C60.4842 35.4047 60.7368 35.2907 60.9175 35.1013C61.0986 34.9014 61.1948 34.6411 61.1695 34.3681C60.5061 26.5014 55.2709 22.8369 44.6915 22.8369C35.2745 22.8369 29.6581 26.8055 29.6581 33.4559C29.6581 40.673 35.2463 42.6691 44.282 43.5595C55.0956 44.6186 55.9349 46.1959 55.9349 48.3204C55.9349 52.0056 52.9735 53.5777 46.0159 53.5777Z" fill="white"/>
</svg>
