<svg width="90" height="80" viewBox="0 0 90 80" fill="none" xmlns="http://www.w3.org/2000/svg">
<path d="M89.5359 40.0323C89.5359 34.3176 83.4033 29.0112 73.1823 25.3375L71.3425 24.7252V23.9088C73.5911 12.6836 71.9558 4.31577 66.8453 1.25436C61.7348 -1.80706 54.1712 1.05026 45.9944 8.19356L44.7679 9.41813L44.3591 9.00994H43.9503C35.569 1.25436 27.3923 -1.39887 22.2818 1.45845C17.1713 4.31577 15.7403 12.2754 17.7845 22.6843C17.9996 23.3465 18.1368 24.0314 18.1934 24.7252L15.9447 25.5416C5.92817 29.0112 0 34.3176 0 40.0323C0 45.7469 6.54143 51.4616 16.7624 55.1353L18.1934 55.5434C17.9408 56.266 17.8029 57.0234 17.7845 57.7885C15.7403 67.9932 17.5801 75.7488 22.2818 78.6061C26.9834 81.4634 35.569 78.8102 43.7458 71.6669L44.9724 70.6464L46.6077 72.2792C52.3315 77.1774 58.0552 79.8307 62.5525 79.8307C64.1388 79.8668 65.7014 79.4413 67.0497 78.6061C72.1602 75.7488 74 67.3809 71.7514 56.768V56.3598C71.663 56.024 71.5948 55.6832 71.5469 55.3393H72.1602C82.9944 51.4616 89.5359 45.951 89.5359 40.0323ZM83.6077 40.0323C83.6077 42.4814 79.1105 46.7674 70.3204 49.6247H69.9116C68.8399 46.3417 67.5422 43.1365 66.0276 40.0323C67.4585 36.7668 68.6851 33.5013 69.7072 30.4398L71.3425 30.848C79.5193 33.7053 83.6077 37.5831 83.6077 40.0323ZM50.4917 67.7891L48.8563 66.5645C51.197 63.9752 53.3813 61.2491 55.3978 58.4008L65.8232 56.768C66.0276 57.1762 66.0276 57.5844 66.232 57.7885C66.9604 61.4853 67.0984 65.2738 66.6409 69.0137C66.3536 70.8022 65.4928 72.4494 64.1878 73.7078C62.1436 74.9324 56.6243 73.2997 50.4917 67.7891ZM47.8342 58.809L44.9724 62.4827L41.7016 58.809H47.8342ZM19.8287 30.2357C20.8562 33.6007 22.1551 36.8769 23.7127 40.0323C22.1538 43.2574 20.855 46.6016 19.8287 50.0329L18.6022 49.6247C15.0225 48.4967 11.692 46.6955 8.79005 44.3183C8.03864 43.8442 7.39551 43.2176 6.90246 42.4792C6.40941 41.7408 6.07746 40.9071 5.92817 40.0323C5.92817 37.5831 10.0166 33.7054 17.7845 31.0521L19.8287 30.2357ZM41.7016 21.2556L44.7679 17.786L47.8342 21.2556H41.7016ZM64.1878 6.35671C66.4364 7.58128 67.6629 13.7041 65.8232 22.6843C65.8326 22.7948 65.8193 22.9062 65.7841 23.0114C65.749 23.1167 65.6927 23.2137 65.6188 23.2965L55.3978 21.6638C53.3813 18.8155 51.197 16.0894 48.8563 13.5L50.0828 12.4795C56.6243 6.7649 61.9392 5.13215 64.1878 6.35671ZM30.0497 27.9907L28.4143 30.6439L26.9834 33.2972C26.3702 31.8685 25.9613 30.4398 25.3481 28.8071L30.0497 27.9907ZM25.3481 51.2575C25.9613 49.8288 26.3702 48.4001 26.9834 46.7674L28.4143 49.4206L30.0497 52.0738L25.3481 51.2575ZM59.4862 40.0323C58.4459 42.2699 57.2859 44.4501 56.011 46.5633C54.7845 48.8083 53.3536 50.8493 52.127 52.8902H37.4088C35.9779 50.6452 34.5469 48.6042 33.5248 46.5633C32.2399 44.4558 31.0795 42.2751 30.0497 40.0323C31.0416 37.7709 32.2033 35.5877 33.5248 33.5013C34.6993 31.3867 35.9962 29.3423 37.4088 27.3784C42.3064 26.9705 47.2295 26.9705 52.127 27.3784C53.558 29.4194 54.7845 31.4603 56.011 33.5013C57.3326 35.5877 58.4943 37.7709 59.4862 40.0323ZM61.1215 30.6439L59.4862 27.9907L64.1878 29.0112C63.7326 30.4725 63.1865 31.9039 62.5525 33.2972L61.1215 30.6439ZM59.4862 52.0738L61.1215 49.4206L62.5525 46.5633L64.3922 51.2575L59.4862 52.0738ZM40.4751 13.2959H40.6795L34.1381 21.4597L23.9171 23.0924C23.7127 22.4802 23.7127 22.072 23.5083 21.4597C21.8729 13.0918 23.0994 7.37718 25.1436 6.35671C25.6863 6.00081 26.3408 5.85561 26.9834 5.94852C29.8453 5.94852 34.7514 7.98947 40.2707 12.8877L40.4751 13.2959ZM23.5083 58.809C23.5456 58.1788 23.6836 57.5587 23.9171 56.9721L34.3425 58.4008C36.3078 61.2871 38.4949 64.0166 40.884 66.5645L40.4751 66.9727L40.0663 67.3809C37.2793 69.9584 34.0159 71.9688 30.4585 73.2997C29.6781 73.7078 28.8232 73.9543 27.945 74.0244C27.0668 74.0946 26.1835 73.9869 25.3481 73.7078C23.0994 72.4833 21.8729 66.9727 23.5083 58.809Z" fill="white"/>
<path d="M44.7677 31.0516C42.9807 31.0111 41.222 31.5031 39.7162 32.4648C38.2104 33.4266 37.0258 34.8145 36.3136 36.4515C35.6014 38.0884 35.3939 39.9001 35.7175 41.6553C36.0411 43.4105 36.8812 45.0296 38.1306 46.306C39.38 47.5824 40.9819 48.4582 42.732 48.8215C44.4821 49.1849 46.301 49.0194 47.9565 48.3461C49.6119 47.6728 51.0289 46.5223 52.0266 45.0414C53.0243 43.5606 53.5573 41.8165 53.5578 40.0318C53.5584 37.685 52.6389 35.4313 50.9961 33.7529C49.3532 32.0746 47.1176 31.105 44.7677 31.0516Z" fill="white"/>
</svg>
