<svg width="80" height="80" viewBox="0 0 80 81" fill="none" xmlns="http://www.w3.org/2000/svg">
<path d="M1.90476 0.703857C1.3996 0.703908 0.915149 0.904604 0.557948 1.26181C0.200746 1.61901 5.05083e-05 2.10346 0 2.60862V78.7991C5.05083e-05 79.3043 0.200746 79.7887 0.557948 80.1459C0.915149 80.5031 1.3996 80.7038 1.90476 80.7039H78.0952C78.6004 80.7038 79.0849 80.5031 79.4421 80.1459C79.7993 79.7887 79.9999 79.3043 80 78.7991V2.60862C79.9999 2.10346 79.7993 1.61901 79.4421 1.26181C79.0849 0.904604 78.6004 0.703908 78.0952 0.703857H1.90476ZM3.80952 4.51338H76.1905V76.8943H3.80952V4.51338ZM20.9524 36.8943V43.4568H30.4762V73.0848H38.0952V43.4568H47.619V36.8943H20.9524ZM62.2693 36.9129C56.3367 36.8893 49.5573 38.6871 49.5573 47.0357C49.5573 57.95 64.2634 57.9527 64.2634 62.8765C64.2634 63.3431 64.4613 66.7344 59.2708 66.7344C54.0804 66.7344 49.7545 63.4717 49.7545 63.4717V71.3921C49.7545 71.3921 72.3847 78.7116 72.3847 62.2068C72.3828 51.4925 57.5409 52.0284 57.5409 46.7046C57.5409 44.6417 59.0064 42.7128 63.0655 42.7128C67.1245 42.7128 70.718 45.1086 70.718 45.1086L70.9859 38.0513C70.9859 38.0513 66.8836 36.9313 62.2693 36.9129Z" fill="white"/>
</svg>
